<svg xmlns="http://www.w3.org/2000/svg" width="800" height="360" viewBox="0 0 800 360">
  <rect width="800" height="360" rx="24" fill="#edf6fa"/>
  <rect x="70" y="45" width="660" height="270" rx="20" fill="#ffffff" stroke="#26343d" stroke-width="7"/>
  <path d="M70 105h660" stroke="#26343d" stroke-width="7"/>
  <circle cx="105" cy="76" r="10" fill="#ff6975"/><circle cx="137" cy="76" r="10" fill="#ffc857"/>
  <circle cx="169" cy="76" r="10" fill="#35aee2"/>
  <rect x="105" y="137" width="225" height="140" rx="12" fill="#dff3fb"/>
  <g fill="#168fd0"><rect x="130" y="161" width="55" height="55" rx="8"/><rect x="200" y="161" width="55" height="55" rx="8"/></g>
  <rect x="270" y="161" width="35" height="55" rx="8" fill="#ff6975"/>
  <path d="M380 160h290M380 202h230M380 244h265" stroke="#83959f" stroke-width="13" stroke-linecap="round"/>
  <path d="M570 285l22-44 22 44 48 7-35 34" fill="#35aee2" stroke="#26343d" stroke-width="5"/>
</svg>
